<?xml version="1.0" encoding="UTF-8"?> <!-- Generator: Adobe Illustrator 24.0.1, SVG Export Plug-In . SVG Version: 6.00 Build 0) --> <svg xmlns="http://www.w3.org/2000/svg" xmlns:xlink="http://www.w3.org/1999/xlink" version="1.1" id="Layer_1" x="0px" y="0px" viewBox="0 0 265.24976 264.42917" xml:space="preserve"> <g> <path fill="#40B5E5" d="M261.02655,165.44968c-14.39516,57.83342-67.06435,98.97949-129.09685,98.97949 c-62.31339,0-114.52921-43.58151-128.33444-101.65358c16.60007,0,32.11871,0.07585,39.32332,0.07585 c3.39864,0,4.05865,0.05894,4.25529,0.04489c5.42097-0.26683,12.21832-2.05603,16.74048-13.05254l17.23206-45.0771 l38.27002,92.38708c3.4408,7.345,9.18484,7.06963,12.61151,7.06963h0.32306c6.685,0,9.5921-2.58746,12.13406-7.43268 l43.22751-91.21066l14.74625,40.99025l0.89883,1.95699c3.11774,6.83943,5.36057,13.57977,13.07635,14.46259 c1.59052,0.18198,20.06113-0.14836,44.9612-0.14836C261.3952,162.84152,261.39532,162.99361,261.02655,165.44968z"></path> <path fill="#D82B2E" d="M265.24976,131.40775c0,0.68814,0,2.43904-0.01404,2.43904h-0.02814h-39.74403L202.27623,69.0546 c-2.06442-4.81711-5.16818-12.04863-14.21255-12.04863c-5.53336,0-10.53302,4.56486-13.36993,12.1065l-42.03381,97.36061 L92.19905,69.6993c-3.96042-8.59494-6.69894-12.63781-14.61978-12.63781c-5.37891,0-9.32529,1.98109-13.62274,12.16302 l-24.01527,65.54396l-39.89917-0.04187C0.01398,133.72943,0,132.73248,0,131.73532C0,58.87484,59.06923,0,131.9297,0 S265.24976,58.54726,265.24976,131.40775z"></path> </g> </svg> 