<?xml version="1.0" encoding="utf-8"?>
<svg viewBox="15.082 49.434 90.3296 23.44" xmlns="http://www.w3.org/2000/svg" xmlns:bx="https://boxy-svg.com">
  <defs>
    <style bx:fonts="Montserrat">@import url(https://fonts.googleapis.com/css2?family=Montserrat%3Aital%2Cwght%400%2C100%3B0%2C200%3B0%2C300%3B0%2C400%3B0%2C500%3B0%2C600%3B0%2C700%3B0%2C800%3B0%2C900%3B1%2C100%3B1%2C200%3B1%2C300%3B1%2C400%3B1%2C500%3B1%2C600%3B1%2C700%3B1%2C800%3B1%2C900&amp;display=swap);</style>
  </defs>
  <g>
    <circle class="st0" cx="26.802" cy="61.154" r="11.72" style="fill: rgb(2, 39, 61);"/>
    <g transform="matrix(1, 0, 0, 1, 15.087357, 46.3339)">
      <path class="st1" d="M12.7509,23.1333c-4.5523,0-8.2422-3.6899-8.2422-8.2414c0-4.5523,3.6899-8.2423,8.2422-8.2423 c2.1677,0,4.1363,0.8367,5.6087,2.2033c-1.6663-1.8752-4.0954-3.0577-6.8019-3.0577c-5.0236,0-9.094,4.0731-9.094,9.0967 s4.0704,9.0958,9.094,9.0958c2.7065,0,5.1356-1.1826,6.8019-3.0577C16.8872,22.2966,14.9187,23.1333,12.7509,23.1333z" style="fill: rgb(71, 181, 226);"/>
      <path class="st2" d="M11.8085,21.8574c3.8464,0,6.9655-3.1191,6.9655-6.9655c0-3.8473-3.1191-6.9664-6.9655-6.9664 c-1.8316,0-3.4961,0.7077-4.7391,1.8627c1.4066-1.5844,3.4605-2.5838,5.7474-2.5838c4.2447,0,7.6874,3.4418,7.6874,7.6874 c0,4.2456-3.4427,7.6874-7.6874,7.6874c-2.2869,0-4.3407-1.0003-5.7474-2.5847C8.3124,21.1496,9.9769,21.8574,11.8085,21.8574z" style="fill: rgb(255, 255, 255);"/>
    </g>
    <path class="st1" d="M 32.228 62.638 C 31.633 65.029 29.456 66.73 26.891 66.73 C 24.314 66.73 22.155 64.929 21.585 62.527 C 22.271 62.527 22.913 62.531 23.21 62.531 C 23.351 62.531 23.378 62.533 23.386 62.532 C 23.61 62.521 23.892 62.447 24.079 61.993 L 24.791 60.129 L 26.373 63.939 C 26.516 64.242 26.753 64.221 26.895 64.221 L 26.908 64.221 C 27.185 64.221 27.305 64.124 27.41 63.924 L 29.197 60.158 L 29.807 61.855 L 29.844 61.937 C 29.973 62.22 30.066 62.499 30.385 62.536 C 30.451 62.543 31.214 62.53 32.244 62.53 C 32.244 62.53 32.244 62.536 32.228 62.638 Z" style="fill: rgb(71, 181, 226);"/>
    <path class="st3" d="M 32.403 61.23 C 32.403 61.258 32.403 61.33 32.403 61.33 L 32.401 61.33 L 30.758 61.33 L 29.799 58.651 C 29.714 58.452 29.586 58.154 29.212 58.154 C 28.983 58.154 28.776 58.343 28.659 58.654 L 26.921 62.68 L 25.248 58.679 C 25.084 58.323 24.971 58.156 24.644 58.156 C 24.421 58.156 24.258 58.238 24.08 58.659 L 23.087 61.369 L 21.438 61.368 C 21.436 61.326 21.436 61.285 21.436 61.244 C 21.436 58.231 23.878 55.797 26.891 55.797 C 29.903 55.797 32.403 58.217 32.403 61.23 Z" style="fill: rgb(215, 47, 44);"/>
    <g transform="matrix(1, 0, 0, 1, 15.087357, 46.3339)">
      <text style="fill: rgb(2, 39, 61); font-size: 8.5px; font-weight: 700; white-space: pre;" x="-110.032" y="-31.14"><tspan style="font-family: Montserrat; font-size: 15px; word-spacing: 0px;" x="28.161" y="20.188">UPLINK</tspan><tspan style="font-size: 8.5px; word-spacing: 0px;">
</tspan></text>
    </g>
  </g>
</svg>