<?xml version="1.0" encoding="utf-8"?>
<!-- Generator: Adobe Illustrator 26.4.1, SVG Export Plug-In . SVG Version: 6.00 Build 0)  -->
<svg version="1.1" id="Layer_1" xmlns="http://www.w3.org/2000/svg" xmlns:xlink="http://www.w3.org/1999/xlink" x="0px" y="0px"
	 viewBox="0 0 265.5264 264.7151" style="enable-background:new 0 0 265.5264 264.7151;" xml:space="preserve">
<style type="text/css">
	.st0{fill:#FFFFFF;}
</style>
<path class="st0" d="M261.2988,165.6324c-14.4102,57.8937-67.1343,99.0827-129.2315,99.0827
	c-62.3784,0-114.6487-43.6269-128.4683-101.7596c16.6174,0,32.1522,0.0759,39.3643,0.0759c3.4022,0,4.0629,0.059,4.2597,0.045
	c5.4266-0.2671,12.2311-2.0582,16.7579-13.0662l17.25-45.1241l38.3099,92.2383c3.4444,7.3527,9.1944,6.8318,12.6247,6.8318h0.3234
	c6.6919,0,9.6021-2.345,12.1467-7.1953l43.2726-91.1833L202.67,146.672l0.8998,1.9897c3.121,6.8466,5.3661,13.6093,13.09,14.493
	c1.5922,0.1822,20.0821-0.1408,45.0081-0.1408C261.6679,163.0138,261.668,163.1737,261.2988,165.6324z"/>
<path class="st0" d="M265.5264,131.5348c0,0.6889,0,2.4214-0.0141,2.4214h-0.0281h-39.7855l-23.2115-64.8396
	c-2.0666-4.8221-5.1736-12.0511-14.2274-12.0511c-5.5391,0-10.544,4.5746-13.3839,12.1241l-42.0776,97.4647L92.2952,69.7808
	c-3.9646-8.6039-6.7059-12.6504-14.6351-12.6504c-5.3845,0-9.335,1.9835-13.6369,12.176l-24.0403,65.6125l-39.9408-0.0418
	C0.014,133.8789,0,132.881,0,131.8828C0,58.9463,59.1308,0,132.0673,0S265.5264,58.5983,265.5264,131.5348z"/>
</svg>
